<?xml version="1.0" standalone="no"?>
<!DOCTYPE svg PUBLIC "-//W3C//DTD SVG 20010904//EN"
 "http://www.w3.org/TR/2001/REC-SVG-20010904/DTD/svg10.dtd">
<svg version="1.0" xmlns="http://www.w3.org/2000/svg"
 width="512.000000pt" height="512.000000pt" viewBox="0 0 512.000000 512.000000"
 preserveAspectRatio="xMidYMid meet">
<metadata>
Created by potrace 1.15, written by Peter Selinger 2001-2017
</metadata>
<g transform="translate(0.000000,512.000000) scale(0.100000,-0.100000)"
fill="#000000" stroke="none">
<path d="M203 4958 c-174 -172 -196 -198 -191 -231 3 -19 32 5 192 163 103
102 192 193 197 203 8 14 5 17 -17 17 -21 0 -60 -33 -181 -152z"/>
<path d="M303 4858 c-140 -139 -264 -265 -275 -281 -10 -15 -18 -37 -16 -50 3
-18 49 23 292 263 158 157 292 293 297 303 8 14 5 17 -17 17 -22 0 -75 -47
-281 -252z"/>
<path d="M402 4758 c-194 -194 -362 -365 -373 -381 -11 -15 -19 -37 -17 -50 4
-18 67 40 392 363 213 212 392 393 397 403 8 14 5 17 -18 17 -22 0 -89 -62
-381 -352z"/>
<path d="M502 4658 c-249 -249 -462 -465 -473 -481 -11 -15 -19 -37 -17 -50 4
-18 84 57 492 463 268 267 492 493 497 503 8 14 5 17 -18 17 -22 0 -104 -76
-481 -452z"/>
<path d="M602 4558 c-304 -304 -562 -565 -573 -581 -11 -15 -19 -37 -17 -50 4
-18 101 75 592 563 323 322 592 593 597 603 8 14 5 17 -18 17 -23 0 -118 -91
-581 -552z"/>
<path d="M702 4458 c-359 -359 -662 -665 -673 -681 -11 -15 -19 -37 -17 -50 4
-18 118 92 692 663 378 377 692 693 697 703 8 14 5 17 -18 17 -23 0 -133 -106
-681 -652z"/>
<path d="M802 4358 c-414 -414 -762 -765 -773 -781 -11 -15 -19 -37 -17 -50 4
-18 136 109 792 763 433 432 792 793 797 803 8 14 5 17 -18 17 -23 0 -148
-120 -781 -752z"/>
<path d="M902 4258 c-469 -469 -862 -865 -873 -881 -11 -15 -19 -37 -17 -50 4
-18 153 126 892 863 488 487 892 893 897 903 8 14 5 17 -18 17 -23 0 -162
-135 -881 -852z"/>
<path d="M1002 4158 c-524 -524 -962 -965 -973 -981 -11 -15 -19 -37 -17 -50
4 -18 170 144 992 963 543 542 992 993 997 1003 8 14 5 17 -18 17 -23 0 -177
-149 -981 -952z"/>
<path d="M1102 4058 c-579 -579 -1062 -1065 -1073 -1081 -11 -15 -19 -37 -17
-50 4 -18 188 161 1092 1063 598 597 1092 1093 1097 1103 8 14 5 17 -18 17
-23 0 -191 -164 -1081 -1052z"/>
<path d="M1202 3958 c-634 -634 -1162 -1165 -1173 -1181 -11 -15 -19 -37 -17
-50 4 -18 205 178 1192 1163 653 652 1192 1193 1197 1203 8 14 5 17 -18 17
-23 0 -206 -178 -1181 -1152z"/>
<path d="M1302 3858 c-689 -689 -1262 -1265 -1273 -1281 -11 -15 -19 -37 -17
-50 4 -18 222 195 1292 1263 708 707 1292 1293 1297 1303 8 14 5 17 -18 17
-23 0 -220 -193 -1281 -1252z"/>
<path d="M1402 3758 c-744 -744 -1362 -1365 -1373 -1381 -11 -15 -19 -37 -17
-50 4 -18 184 157 1072 1043 685 683 1066 1056 1062 1040 -3 -14 -11 -50 -17
-81 l-11 -56 -1035 -1034 c-569 -569 -1043 -1046 -1054 -1062 -11 -15 -19 -37
-17 -50 4 -18 71 44 416 388 l412 410 0 -65 0 -64 -415 -416 c-341 -342 -415
-421 -415 -443 0 -15 3 -27 7 -27 4 0 191 183 415 407 l408 408 0 -65 0 -64
-415 -416 c-341 -342 -415 -421 -415 -443 0 -15 3 -27 7 -27 4 0 191 183 415
407 l408 408 0 -65 0 -64 -415 -416 c-341 -342 -415 -421 -415 -443 0 -15 3
-27 7 -27 4 0 191 183 415 407 l408 408 0 -65 0 -64 -415 -416 c-341 -342
-415 -421 -415 -443 0 -15 3 -27 7 -27 4 0 191 183 415 407 l408 408 0 -65 0
-64 -415 -416 c-341 -342 -415 -421 -415 -443 0 -15 3 -27 7 -27 4 0 193 186
420 412 227 227 413 405 413 396 0 -9 11 -26 25 -39 l24 -24 -444 -445 c-370
-371 -445 -451 -445 -473 0 -23 3 -26 18 -18 9 5 222 215 472 465 l455 456 65
0 65 0 -538 -538 c-448 -449 -537 -542 -537 -565 0 -23 3 -26 18 -18 9 5 267
260 572 565 311 312 563 556 572 556 15 0 18 -9 18 -48 l0 -47 -290 -290
c-286 -286 -289 -289 -310 -270 -20 18 -20 18 -20 -21 0 -37 -10 -48 -280
-319 -227 -228 -280 -287 -280 -308 0 -15 3 -27 7 -27 4 0 130 123 280 272
l273 273 0 -65 0 -64 -280 -281 c-227 -228 -280 -287 -280 -308 0 -15 3 -27 7
-27 4 0 130 123 280 272 206 205 273 267 273 250 0 -12 11 -29 26 -38 l25 -17
-305 -307 c-251 -251 -306 -311 -306 -334 0 -22 3 -25 18 -17 9 5 154 147 322
315 168 168 309 306 313 306 4 0 23 -10 42 -23 l34 -23 -330 -330 c-182 -181
-335 -337 -340 -346 -8 -15 -5 -18 18 -18 22 0 86 59 362 334 l336 334 42 -21
43 -22 -296 -295 c-162 -162 -300 -303 -305 -313 -8 -14 -5 -17 17 -17 23 0
82 54 330 301 l302 301 47 -17 46 -18 -275 -277 c-152 -151 -276 -279 -276
-283 0 -4 12 -7 27 -7 21 0 79 52 303 275 l276 276 58 -7 58 -7 -261 -261
c-144 -144 -261 -265 -261 -269 0 -4 12 -7 27 -7 21 0 77 51 292 265 204 202
273 266 296 269 17 3 50 8 75 11 l45 6 -268 -269 c-147 -147 -267 -271 -267
-275 0 -4 12 -7 27 -7 22 0 82 55 323 295 163 162 299 295 304 295 11 0 186
89 221 112 16 12 -129 -138 -322 -333 -194 -195 -353 -358 -353 -362 0 -4 12
-7 27 -7 22 0 98 71 428 400 l400 400 38 -27 38 -27 -366 -366 c-201 -201
-365 -369 -365 -373 0 -4 12 -7 27 -7 22 0 92 65 387 359 l361 359 38 -26 38
-25 -325 -327 c-179 -179 -326 -329 -326 -333 0 -4 12 -7 27 -7 22 0 86 59
348 321 l322 320 41 -17 c23 -9 42 -19 42 -23 0 -3 -126 -132 -281 -286 -154
-154 -285 -288 -290 -297 -8 -15 -5 -18 17 -18 23 0 81 53 319 291 l292 291
44 -13 c24 -7 46 -14 48 -16 3 -2 -115 -124 -262 -271 -147 -147 -267 -271
-267 -275 0 -4 12 -7 27 -7 21 0 79 52 299 271 l272 272 58 -8 57 -7 -257
-257 c-141 -141 -256 -260 -256 -264 0 -4 12 -7 27 -7 21 0 78 52 297 269
l271 270 65 15 c36 8 74 18 85 22 11 4 -107 -121 -262 -278 -156 -156 -283
-287 -283 -291 0 -4 12 -7 27 -7 22 0 87 60 352 324 270 267 340 331 405 370
44 26 99 63 124 82 43 32 72 43 72 26 0 -4 -171 -178 -381 -387 -209 -209
-385 -388 -390 -397 -8 -15 -5 -18 18 -18 22 0 94 67 412 384 l386 384 38 -26
38 -25 -350 -352 c-193 -193 -351 -354 -351 -358 0 -4 12 -7 27 -7 22 0 90 63
373 345 l345 345 35 -21 c19 -12 37 -23 39 -25 3 -3 -135 -145 -307 -317 -172
-172 -312 -316 -312 -320 0 -4 12 -7 27 -7 22 0 85 58 338 311 l312 310 39
-18 c21 -9 41 -19 43 -21 3 -1 -122 -130 -277 -285 -155 -156 -282 -286 -282
-290 0 -4 12 -7 27 -7 21 0 80 53 309 281 309 308 280 287 368 262 15 -4 -36
-59 -243 -267 -143 -144 -261 -265 -261 -269 0 -4 12 -7 27 -7 21 0 78 51 292
264 l266 264 70 6 70 7 -262 -263 c-145 -145 -263 -267 -263 -271 0 -4 12 -7
27 -7 21 0 81 55 313 285 157 157 294 285 303 285 9 0 42 12 74 26 32 14 69
30 83 35 14 6 -116 -131 -287 -303 -172 -173 -313 -317 -313 -321 0 -4 12 -7
27 -7 22 0 101 74 433 405 224 223 412 405 418 405 7 0 12 5 12 12 0 7 128
141 285 298 231 232 285 292 285 313 0 15 -3 27 -7 27 -4 0 -132 -125 -285
-277 l-278 -278 0 65 0 64 285 286 c231 232 285 292 285 313 0 15 -3 27 -7 27
-4 0 -132 -125 -285 -277 l-278 -278 0 49 0 49 -78 -74 c-42 -41 -97 -89 -122
-108 -25 -19 138 150 363 375 334 337 407 415 407 437 0 15 -3 27 -7 27 -4 0
-231 -223 -503 -495 l-496 -496 -73 -24 c-40 -14 -80 -25 -89 -25 -9 0 250
267 576 593 492 492 592 597 592 620 0 15 -3 27 -7 27 -4 0 -287 -280 -629
-621 l-622 -622 -48 7 c-26 3 -50 8 -53 11 -3 3 295 306 662 673 367 367 674
677 683 690 8 12 14 32 12 45 -4 18 -105 -78 -601 -573 l-597 -595 0 65 0 65
600 600 c498 499 600 605 600 628 0 15 -3 27 -7 27 -4 0 -274 -267 -600 -592
l-593 -593 0 65 0 65 600 600 c498 499 600 605 600 628 0 15 -3 27 -7 27 -4 0
-274 -267 -600 -592 l-593 -593 0 66 0 65 123 122 c68 67 129 122 135 122 13
0 62 51 62 65 0 5 198 208 440 450 363 364 440 446 440 468 0 15 -3 27 -7 27
-4 0 -200 -192 -435 -427 l-428 -428 0 65 0 64 435 436 c358 359 435 441 435
463 0 15 -3 27 -7 27 -4 0 -200 -192 -435 -427 l-428 -428 0 65 0 64 435 436
c358 359 435 441 435 463 0 15 -3 27 -7 27 -4 0 -204 -196 -444 -436 l-437
-436 -33 23 c-19 13 -36 25 -38 27 -3 1 212 220 477 485 401 402 482 487 482
510 0 23 -3 26 -17 18 -10 -5 -243 -235 -518 -510 l-500 -501 -65 0 -65 0 583
583 c487 487 582 587 582 610 0 23 -3 26 -17 18 -10 -5 -288 -280 -618 -610
l-600 -601 -65 0 -65 0 683 683 c572 573 682 687 682 710 0 23 -3 26 -17 18
-10 -5 -333 -325 -718 -710 l-700 -701 -65 0 -65 0 783 783 c653 653 782 787
782 810 0 15 -3 27 -7 27 -4 0 -295 -287 -646 -637 l-638 -638 81 145 81 145
565 565 c468 469 564 570 564 593 0 15 -3 27 -7 27 -4 0 -237 -228 -517 -507
-280 -280 -503 -497 -494 -483 8 14 43 77 78 140 l63 115 439 441 c360 362
438 445 438 467 0 15 -3 27 -7 27 -4 0 -178 -170 -386 -377 l-378 -378 39 75
c22 41 43 91 47 110 6 29 66 94 346 376 279 280 339 345 339 367 0 23 -3 26
-17 18 -10 -5 -164 -156 -343 -335 -179 -179 -328 -326 -332 -326 -5 0 -8 6
-8 13 0 6 -9 23 -20 37 l-19 25 369 371 c303 303 370 375 370 397 0 15 -3 27
-7 27 -4 0 -179 -171 -388 -380 l-380 -379 -47 17 -48 17 435 435 c358 359
435 441 435 463 0 15 -3 27 -7 27 -4 0 -219 -211 -478 -469 -258 -258 -484
-476 -500 -484 -28 -14 -182 -167 -690 -684 -104 -106 -192 -193 -195 -193 -4
0 -10 19 -14 42 l-7 42 891 891 c489 489 890 894 890 898 0 4 -12 7 -27 7 -23
0 -170 -142 -898 -871 l-871 -870 -10 55 -10 55 798 798 c440 439 804 806 809
816 8 14 5 17 -18 17 -23 0 -152 -125 -814 -786 l-786 -786 -13 52 -13 52 727
727 c399 399 726 730 726 734 0 4 -12 7 -27 7 -23 0 -144 -117 -728 -700 -385
-385 -703 -700 -707 -700 -3 0 -9 23 -13 51 l-7 52 641 641 c352 353 641 645
641 649 0 4 -12 7 -27 7 -23 0 -132 -105 -649 -621 l-622 -621 -11 53 -12 53
561 561 c308 308 560 564 560 568 0 4 -12 7 -27 7 -23 0 -119 -92 -564 -536
-295 -295 -539 -532 -542 -528 -2 5 -8 29 -12 53 l-7 44 476 476 c262 262 476
480 476 484 0 4 -12 7 -27 7 -22 0 -107 -80 -484 -456 l-456 -456 -11 54 -11
53 395 395 c217 218 394 399 394 403 0 4 -12 7 -27 7 -22 0 -94 -67 -399 -371
l-372 -372 -11 39 c-6 22 -11 46 -11 54 0 8 135 150 301 315 165 165 305 308
310 318 8 14 5 17 -17 17 -23 0 -81 -53 -320 -291 l-292 -291 -36 28 -36 29
255 255 c140 141 255 259 255 263 0 4 -12 7 -27 7 -21 0 -77 -50 -288 -260
l-261 -260 -64 0 -64 0 252 253 c138 139 252 256 252 260 0 4 -12 7 -27 7 -21
0 -77 -50 -288 -260 l-261 -260 -64 0 -64 0 252 253 c138 139 252 256 252 260
0 4 -12 7 -27 7 -21 0 -77 -50 -288 -260 l-261 -260 -64 0 -64 0 252 253 c138
139 252 256 252 260 0 4 -12 7 -27 7 -23 0 -243 -216 -1381 -1352z m1063 462
c-54 -54 -100 -98 -101 -97 -1 1 6 36 15 78 22 105 37 119 120 119 l66 0 -100
-100z m275 88 c0 -7 -55 -68 -122 -135 l-123 -123 -65 0 -65 0 135 135 135
135 52 0 c35 0 53 -4 53 -12z m29 -120 l12 -52 -43 -43 c-41 -42 -44 -43 -107
-43 l-66 0 95 95 c52 52 95 95 96 95 2 0 7 -23 13 -52z m-687 -85 l-14 -78
-472 -472 -471 -473 -65 0 -65 0 550 550 c302 303 550 550 551 550 1 0 -6 -35
-14 -77z m-53 -259 l-12 -69 -346 -347 -346 -348 -65 0 -65 0 420 420 c230
230 421 418 423 416 1 -2 -2 -35 -9 -72z m466 -194 l-130 -130 -65 0 -65 0
130 130 130 130 65 0 65 0 -130 -130z m200 0 l-130 -130 -65 0 -65 0 130 130
130 130 65 0 65 0 -130 -130z m180 34 c7 -47 7 -47 -51 -105 l-58 -59 -66 0
-65 0 109 109 c61 61 113 108 117 106 4 -3 10 -26 14 -51z m-900 -95 l-16 -74
-217 -217 -217 -218 -65 0 -65 0 295 295 c162 162 296 293 297 291 2 -2 -4
-36 -12 -77z m-52 -249 c-16 -74 -17 -76 -107 -167 l-91 -93 -65 0 -65 0 170
170 c93 93 170 168 171 167 2 -1 -4 -36 -13 -77z m487 -175 l-85 -85 -65 0
-65 0 85 85 85 85 65 0 65 0 -85 -85z m174 -26 l-112 -111 -33 23 c-19 13 -36
25 -38 27 -3 1 33 41 79 87 l85 85 65 0 65 0 -111 -111z m111 -89 l-200 -200
-3 62 -3 62 138 138 138 138 65 0 65 0 -200 -200z m282 141 l10 -49 -249 -249
-248 -248 0 65 0 65 232 232 c128 128 236 233 239 233 4 0 11 -22 16 -49z
m-99 -350 c-79 -80 -199 -202 -266 -271 l-122 -125 0 65 0 65 253 253 252 252
13 -46 14 -47 -144 -146z m-1368 -151 c12 -8 -11 -35 -115 -140 -116 -116
-131 -128 -142 -113 -7 9 -13 33 -13 52 0 31 11 46 87 123 81 82 90 88 128 88
22 0 47 -5 55 -10z m566 -16 l17 -26 -121 -120 -120 -121 -26 17 c-45 29 -34
53 81 168 116 116 140 128 169 82z m-583 -226 c-35 -36 -40 -38 -102 -38 l-66
0 100 100 100 101 3 -62 c3 -60 2 -63 -35 -101z m1277 77 l-85 -85 -65 0 -65
0 85 85 85 85 65 0 65 0 -85 -85z m200 0 l-85 -85 -65 0 -65 0 85 85 85 85 65
0 65 0 -85 -85z m200 0 l-85 -85 -65 0 -65 0 85 85 85 85 65 0 65 0 -85 -85z
m200 0 l-85 -85 -65 0 -65 0 85 85 85 85 65 0 65 0 -85 -85z m200 0 l-85 -85
-65 0 -65 0 85 85 85 85 65 0 65 0 -85 -85z m-1250 -850 l-165 -165 -3 62 -3
62 103 103 103 103 65 0 65 0 -165 -165z m100 -100 l-265 -265 -3 62 -3 62
203 203 203 203 65 0 65 0 -265 -265z m65 -135 c-220 -220 -403 -400 -407
-400 -3 0 -21 12 -38 26 l-31 27 57 58 c32 33 64 59 71 59 7 0 13 6 13 12 0 7
136 149 302 315 l303 303 65 0 65 0 -400 -400z m94 -106 l-382 -382 -39 26
-39 26 418 418 418 418 3 -62 3 -62 -382 -382z m-1626 -26 l-238 -238 -35 29
-35 30 270 271 270 270 3 -62 3 -62 -238 -238z m1689 -111 l-320 -320 -41 24
-42 23 358 358 358 358 3 -62 3 -62 -319 -319z m-1635 -35 l-184 -184 -34 30
-34 31 215 216 215 215 3 -62 3 -62 -184 -184z m2234 267 c10 -20 -12 -45
-272 -306 -299 -298 -305 -303 -394 -303 l-40 0 210 210 c169 169 211 206 215
191 4 -16 28 2 135 104 72 69 131 124 132 125 1 0 7 -10 14 -21z m-525 -358
l-244 -244 -46 13 c-25 7 -46 15 -46 19 0 3 129 135 288 294 l287 287 3 -62 3
-62 -245 -245z m-751 308 l30 -30 -215 -212 c-183 -181 -225 -217 -283 -245
-175 -85 -176 -87 138 228 159 159 292 290 296 290 3 0 18 -14 34 -31z m1360
-39 l29 -30 -59 -60 c-32 -32 -62 -57 -67 -54 -5 3 -44 -27 -87 -68 -82 -77
-202 -166 -286 -213 -42 -23 -10 12 190 214 132 132 242 241 246 241 3 0 18
-14 34 -30z m-1260 -60 l29 -30 -59 -60 -59 -60 -33 32 -33 32 57 58 c32 32
60 58 63 58 4 0 19 -14 35 -30z m1333 -127 l-62 -63 -33 32 -33 32 62 63 62
63 33 -32 33 -32 -62 -63z m-2330 -129 l-123 -122 -39 25 -39 25 159 159 159
159 3 -62 3 -62 -123 -122z m407 5 c-110 -110 -207 -204 -216 -209 -9 -5 -40
-7 -69 -3 l-52 6 84 84 c66 67 99 92 163 122 76 36 218 135 259 180 11 12 22
21 25 21 3 0 -84 -90 -194 -201z m2095 101 c0 -3 -28 -33 -62 -67 l-63 -62
-35 29 -35 29 64 65 64 65 33 -27 c19 -15 34 -29 34 -32z m85 -52 c19 -13 35
-25 35 -28 0 -3 -28 -34 -63 -68 l-62 -62 -39 26 -38 26 63 64 c35 35 65 64
66 64 2 0 19 -10 38 -22z m-2442 -88 c18 0 8 -14 -54 -76 l-75 -75 -42 16
c-23 10 -42 20 -42 23 0 4 42 48 93 100 l92 93 3 -41 c3 -34 7 -40 25 -40z
m2560 -62 c-37 -37 -73 -68 -80 -68 -7 0 -28 8 -48 17 l-36 17 67 67 66 67 49
-16 50 -16 -68 -68z"/>
<path d="M4496 650 c-339 -338 -622 -623 -627 -632 -8 -15 -5 -18 18 -18 23 0
123 95 611 583 321 320 592 594 603 610 11 15 19 37 17 50 -4 18 -106 -80
-622 -593z"/>
<path d="M4596 550 c-284 -283 -522 -523 -527 -533 -8 -14 -5 -17 18 -17 23 0
108 81 511 483 266 265 492 494 503 510 11 15 19 37 17 50 -4 18 -89 -62 -522
-493z"/>
<path d="M4696 450 c-229 -228 -422 -423 -427 -432 -8 -15 -5 -18 18 -18 22 0
93 66 411 383 211 210 392 394 403 410 11 15 19 37 17 50 -4 18 -72 -45 -422
-393z"/>
<path d="M4796 350 c-174 -173 -322 -323 -327 -332 -8 -15 -5 -18 17 -18 23 0
80 52 312 282 156 156 293 295 303 311 11 15 19 37 17 50 -4 18 -54 -28 -322
-293z"/>
<path d="M4896 250 c-119 -118 -222 -223 -227 -232 -8 -15 -5 -18 17 -18 21 0
65 37 211 183 205 202 226 227 221 260 -3 19 -37 -11 -222 -193z"/>
<path d="M4996 150 c-136 -133 -149 -150 -111 -150 18 0 49 23 111 82 102 98
127 130 122 161 -3 19 -19 7 -122 -93z"/>
</g>
</svg>
